<?xml version="1.0" encoding="UTF-8"?>
<!DOCTYPE svg PUBLIC "-//W3C//DTD SVG 1.1//EN" "http://www.w3.org/Graphics/SVG/1.1/DTD/svg11.dtd">
<svg xmlns="http://www.w3.org/2000/svg" version="1.1" width="441px" height="565px" style="shape-rendering:geometricPrecision; text-rendering:geometricPrecision; image-rendering:optimizeQuality; fill-rule:evenodd; clip-rule:evenodd" xmlns:xlink="http://www.w3.org/1999/xlink">
<g><path style="opacity:1" fill="#465a66" d="M 285.5,509.5 C 285.461,508.417 285.127,507.417 284.5,506.5C 287.105,505.293 288.772,503.293 289.5,500.5C 289.833,501.167 290.167,501.833 290.5,502.5C 291.833,501.5 293.167,500.5 294.5,499.5C 294.833,500.167 295.167,500.833 295.5,501.5C 296.59,500.273 297.924,499.44 299.5,499C 299.167,498.667 298.833,498.333 298.5,498C 299.5,497.667 300.5,497.333 301.5,497C 300.027,496.29 299.36,495.124 299.5,493.5C 295.073,493.183 290.739,493.183 286.5,493.5C 285.476,492.148 284.476,490.815 283.5,489.5C 307.232,473.772 331.232,458.439 355.5,443.5C 356.609,443.443 357.609,443.11 358.5,442.5C 359.043,442.44 359.376,442.107 359.5,441.5C 356.914,440.52 354.247,440.187 351.5,440.5C 351.5,439.5 351.5,438.5 351.5,437.5C 324.831,437.667 298.165,437.5 271.5,437C 271.833,436.667 272.167,436.333 272.5,436C 296.833,435.667 321.167,435.333 345.5,435C 347.167,434.667 348.833,434.333 350.5,434C 347.274,432.628 343.941,431.461 340.5,430.5C 340.667,430.167 340.833,429.833 341,429.5C 344.333,430.833 347.667,430.833 351,429.5C 351.333,430.167 351.667,430.833 352,431.5C 353.667,430.833 355.333,430.167 357,429.5C 359.667,429.5 362.333,429.5 365,429.5C 366.087,431.932 366.587,431.598 366.5,428.5C 368.995,429.199 371.328,430.199 373.5,431.5C 373.297,428.767 372.297,426.434 370.5,424.5C 371.791,424.737 372.791,424.404 373.5,423.5C 370.862,418.517 368.195,413.517 365.5,408.5C 365.657,407.127 365.49,405.793 365,404.5C 363.167,401.5 361.333,398.5 359.5,395.5C 360.651,393.191 361.984,391.024 363.5,389C 363.354,387.273 362.687,387.106 361.5,388.5C 360.614,389.325 360.281,390.325 360.5,391.5C 359.5,391.5 358.5,391.5 357.5,391.5C 357.906,388.012 358.906,384.679 360.5,381.5C 359.224,378.148 358.39,374.815 358,371.5C 359.961,374.463 362.294,377.129 365,379.5C 366.666,378.66 366.833,379.16 365.5,381C 366,381.5 366.5,382 367,382.5C 367.49,381.207 367.657,379.873 367.5,378.5C 369.009,379.859 369.676,379.359 369.5,377C 365.188,356.598 360.522,336.431 355.5,316.5C 349.282,282.574 342.116,248.908 334,215.5C 333.006,219.474 331.506,223.14 329.5,226.5C 327.839,223.555 326.672,220.221 326,216.5C 324.901,222.474 324.401,228.474 324.5,234.5C 323.205,233.902 321.872,233.402 320.5,233C 321.617,229.927 321.784,226.76 321,223.5C 319.883,222.051 319.216,220.384 319,218.5C 318.667,218.833 318.333,219.167 318,219.5C 317.443,212.946 318.443,206.612 321,200.5C 323.212,197.998 324.045,194.998 323.5,191.5C 323.717,188.565 324.383,185.731 325.5,183C 324.771,180.752 323.771,178.585 322.5,176.5C 291.443,133.792 260.443,91.1249 229.5,48.5C 229.44,47.9569 229.107,47.6236 228.5,47.5C 227.17,79.6641 227.17,111.664 228.5,143.5C 248.224,175.901 267.557,208.568 286.5,241.5C 286.34,243.199 286.506,244.866 287,246.5C 289.085,248.169 290.251,250.336 290.5,253C 289.748,255.154 289.581,257.32 290,259.5C 290.833,258.5 291.667,257.5 292.5,256.5C 293.086,256.709 293.586,257.043 294,257.5C 295.045,260.436 295.879,263.436 296.5,266.5C 296.291,267.086 295.957,267.586 295.5,268C 297.367,268.711 298.867,268.211 300,266.5C 303.107,257.329 304.94,257.996 305.5,268.5C 305.855,273.439 304.855,273.773 302.5,269.5C 300.578,270.711 298.745,272.044 297,273.5C 295.956,272.377 295.29,271.044 295,269.5C 293.693,270.772 292.193,271.772 290.5,272.5C 291.815,273.895 291.481,274.895 289.5,275.5C 288.201,274.91 287.368,273.91 287,272.5C 286.617,273.056 286.117,273.389 285.5,273.5C 264.189,238.894 243.356,203.894 223,168.5C 221.959,166.415 220.459,164.748 218.5,163.5C 193.844,203.984 169.844,244.817 146.5,286C 147.159,288.462 147.493,290.962 147.5,293.5C 148.17,297.851 149.004,302.184 150,306.5C 154.557,315.796 158.057,325.463 160.5,335.5C 159.427,336.658 158.261,336.658 157,335.5C 155.311,336.858 153.978,338.525 153,340.5C 152.053,345.03 152.553,349.364 154.5,353.5C 154.167,354.167 153.833,354.833 153.5,355.5C 154.758,354.984 155.758,355.65 156.5,357.5C 157.779,352.814 157.779,348.147 156.5,343.5C 156.998,341.336 158.164,339.669 160,338.5C 162.461,349.94 165.961,361.106 170.5,372C 167.664,376.988 164.664,381.822 161.5,386.5C 161.167,386.167 160.833,385.833 160.5,385.5C 162.664,381.504 164.33,377.337 165.5,373C 164.561,368.077 163.227,363.244 161.5,358.5C 161.753,356.142 162.086,353.808 162.5,351.5C 161.5,351.5 160.5,351.5 159.5,351.5C 159.915,356.34 159.248,361.007 157.5,365.5C 157.833,367.833 158.833,368.167 160.5,366.5C 162.043,371.402 161.543,376.069 159,380.5C 157.797,375.673 155.964,371.339 153.5,367.5C 153.5,366.833 153.5,366.167 153.5,365.5C 151.278,354.946 148.278,344.613 144.5,334.5C 144.384,331.729 145.551,329.729 148,328.5C 149.871,324.075 149.871,319.742 148,315.5C 147.692,316.308 147.192,316.975 146.5,317.5C 145.454,313.01 144.954,308.676 145,304.5C 143.301,306.388 142.801,308.388 143.5,310.5C 140.572,315.898 138.572,315.398 137.5,309C 138.167,307.333 138.833,305.667 139.5,304C 139.167,303.5 138.833,303 138.5,302.5C 137.115,306.378 135.949,306.378 135,302.5C 133.379,304.493 131.713,306.493 130,308.5C 129.667,306.833 129.333,305.167 129,303.5C 127.604,305.527 125.938,305.86 124,304.5C 121.347,306.155 119.014,308.155 117,310.5C 115.999,306.846 116.999,303.846 120,301.5C 122.067,296.259 123.9,290.926 125.5,285.5C 119.852,262.389 112.686,239.722 104,217.5C 100.29,230.154 97.1229,242.82 94.5,255.5C 93.678,257.389 92.8447,259.389 92,261.5C 90.3905,262.147 88.8905,262.98 87.5,264C 87.2386,268.221 87.7386,272.387 89,276.5C 88.1667,277.5 87.3333,278.5 86.5,279.5C 85.52,276.914 85.1866,274.247 85.5,271.5C 84.1779,271.67 83.0113,271.337 82,270.5C 82.291,286.925 79.791,302.925 74.5,318.5C 73.4967,313.517 73.4967,308.517 74.5,303.5C 75.5,303.5 76.5,303.5 77.5,303.5C 77.6661,297.824 77.4994,292.157 77,286.5C 75.9887,287.337 74.8221,287.67 73.5,287.5C 73.6989,293.46 72.6989,299.127 70.5,304.5C 70.7093,305.086 71.0426,305.586 71.5,306C 70.3333,307.167 69.1667,308.333 68,309.5C 66.9535,312.859 65.4535,315.859 63.5,318.5C 73.0593,270.266 83.5593,222.266 95,174.5C 133.912,121.01 172.578,67.3433 211,13.5C 214.822,9.27888 219.322,8.44555 224.5,11C 265.054,66.5543 305.221,122.388 345,178.5C 362.848,263.24 381.015,347.907 399.5,432.5C 399.257,436.151 397.59,438.984 394.5,441C 358.139,463.844 321.805,486.677 285.5,509.5 Z"/></g>
<g><path style="opacity:1" fill="#669ab0" d="M 208.5,48.5 C 208.56,47.9569 208.893,47.6236 209.5,47.5C 210.83,79.6641 210.83,111.664 209.5,143.5C 209.832,111.662 209.498,79.9956 208.5,48.5 Z"/></g>
<g><path style="opacity:1" fill="#80d7fc" d="M 208.5,48.5 C 209.498,79.9956 209.832,111.662 209.5,143.5C 185.608,182.938 161.941,222.605 138.5,262.5C 129.617,235.852 120.95,209.185 112.5,182.5C 144.135,137.538 176.135,92.8712 208.5,48.5 Z"/></g>
<g><path style="opacity:1" fill="#80d7fc" d="M 229.5,48.5 C 260.443,91.1249 291.443,133.792 322.5,176.5C 323.771,178.585 324.771,180.752 325.5,183C 324.383,185.731 323.717,188.565 323.5,191.5C 315.73,214.809 307.73,238.142 299.5,261.5C 295.143,254.768 290.809,248.102 286.5,241.5C 267.557,208.568 248.224,175.901 228.5,143.5C 228.168,111.662 228.502,79.9956 229.5,48.5 Z"/></g>
<g><path style="opacity:1" fill="#5f98b3" d="M 229.5,48.5 C 228.502,79.9956 228.168,111.662 228.5,143.5C 227.17,111.664 227.17,79.6641 228.5,47.5C 229.107,47.6236 229.44,47.9569 229.5,48.5 Z"/></g>
<g><path style="opacity:1" fill="#80d7fd" d="M 285.5,273.5 C 287.448,277.898 289.782,282.064 292.5,286C 284.088,311.15 275.755,336.317 267.5,361.5C 260.626,382.12 253.96,402.787 247.5,423.5C 227.932,424.135 208.599,423.468 189.5,421.5C 180.728,392.519 171.394,363.852 161.5,335.5C 157.402,321.205 152.735,307.205 147.5,293.5C 147.493,290.962 147.159,288.462 146.5,286C 169.844,244.817 193.844,203.984 218.5,163.5C 220.459,164.748 221.959,166.415 223,168.5C 243.356,203.894 264.189,238.894 285.5,273.5 Z"/></g>
<g><path style="opacity:1" fill="#80d6fa" d="M 355.5,316.5 C 356.576,325.83 357.743,335.163 359,344.5C 361.52,349.736 363.353,355.236 364.5,361C 364.518,363.41 363.851,365.577 362.5,367.5C 346.249,341.333 330.249,315 314.5,288.5C 312.334,284.665 312.001,280.665 313.5,276.5C 318.529,261.582 323.696,246.582 329,231.5C 329.494,229.866 329.66,228.199 329.5,226.5C 331.506,223.14 333.006,219.474 334,215.5C 342.116,248.908 349.282,282.574 355.5,316.5 Z"/></g>
<g><path style="opacity:1" fill="#80d5f9" d="M 125.5,285.5 C 106.441,316.604 87.6077,347.937 69,379.5C 77.1664,338.158 85.6664,296.824 94.5,255.5C 97.1229,242.82 100.29,230.154 104,217.5C 112.686,239.722 119.852,262.389 125.5,285.5 Z"/></g>
<g><path style="opacity:1" fill="#445b69" d="M 323.5,191.5 C 324.045,194.998 323.212,197.998 321,200.5C 318.443,206.612 317.443,212.946 318,219.5C 318.333,219.167 318.667,218.833 319,218.5C 319.216,220.384 319.883,222.051 321,223.5C 321.784,226.76 321.617,229.927 320.5,233C 321.872,233.402 323.205,233.902 324.5,234.5C 324.401,228.474 324.901,222.474 326,216.5C 326.672,220.221 327.839,223.555 329.5,226.5C 329.66,228.199 329.494,229.866 329,231.5C 323.696,246.582 318.529,261.582 313.5,276.5C 314.221,271.83 315.054,267.163 316,262.5C 319.26,255.807 321.76,248.807 323.5,241.5C 323.295,237.625 321.295,235.959 317.5,236.5C 318.413,233.777 319.08,231.277 319.5,229C 317.546,229.453 315.713,229.62 314,229.5C 313.667,228.833 313.333,228.167 313,227.5C 312.418,231.246 311.252,234.746 309.5,238C 310.246,240.991 309.913,243.991 308.5,247C 310.084,249.825 309.418,251.992 306.5,253.5C 305.313,252.106 304.646,252.273 304.5,254C 304.833,254.5 305.167,255 305.5,255.5C 306.72,254.289 307.887,254.289 309,255.5C 311.139,266.435 310.306,277.102 306.5,287.5C 305.5,287 304.5,286.5 303.5,286C 305.444,283.847 305.944,281.347 305,278.5C 301.234,285.835 300.567,293.502 303,301.5C 304.921,303.894 307.087,305.06 309.5,305C 308.355,307.199 308.355,309.365 309.5,311.5C 311.703,313.295 312.869,315.629 313,318.5C 315.382,320.546 317.382,322.879 319,325.5C 321.761,321.568 324.594,317.735 327.5,314C 324.154,310.169 321.154,305.503 318.5,300C 316.848,296.217 315.515,292.383 314.5,288.5C 330.249,315 346.249,341.333 362.5,367.5C 364.424,371.017 366.091,374.684 367.5,378.5C 367.657,379.873 367.49,381.207 367,382.5C 366.5,382 366,381.5 365.5,381C 366.833,379.16 366.666,378.66 365,379.5C 362.294,377.129 359.961,374.463 358,371.5C 358.39,374.815 359.224,378.148 360.5,381.5C 358.906,384.679 357.906,388.012 357.5,391.5C 358.5,391.5 359.5,391.5 360.5,391.5C 360.281,390.325 360.614,389.325 361.5,388.5C 362.687,387.106 363.354,387.273 363.5,389C 361.984,391.024 360.651,393.191 359.5,395.5C 361.333,398.5 363.167,401.5 365,404.5C 365.49,405.793 365.657,407.127 365.5,408.5C 345.454,375.428 325.621,342.094 306,308.5C 305.333,307.167 304.667,307.167 304,308.5C 300.7,317.571 297.534,326.571 294.5,335.5C 295.902,328.969 296.735,322.302 297,315.5C 296.261,313.779 295.427,312.113 294.5,310.5C 294.258,315.666 292.758,320.332 290,324.5C 289.881,329.282 289.215,333.949 288,338.5C 287.842,333.053 287.008,327.72 285.5,322.5C 285.179,319.488 286.512,318.155 289.5,318.5C 289.54,315.575 288.707,312.909 287,310.5C 283.137,317.475 280.137,324.808 278,332.5C 277.906,338.278 277.239,343.944 276,349.5C 275.147,347.875 274.147,347.542 273,348.5C 273.318,353.853 271.484,358.186 267.5,361.5C 275.755,336.317 284.088,311.15 292.5,286C 289.782,282.064 287.448,277.898 285.5,273.5C 286.117,273.389 286.617,273.056 287,272.5C 287.368,273.91 288.201,274.91 289.5,275.5C 291.481,274.895 291.815,273.895 290.5,272.5C 292.193,271.772 293.693,270.772 295,269.5C 295.29,271.044 295.956,272.377 297,273.5C 298.745,272.044 300.578,270.711 302.5,269.5C 304.855,273.773 305.855,273.439 305.5,268.5C 304.94,257.996 303.107,257.329 300,266.5C 298.867,268.211 297.367,268.711 295.5,268C 295.957,267.586 296.291,267.086 296.5,266.5C 295.879,263.436 295.045,260.436 294,257.5C 293.586,257.043 293.086,256.709 292.5,256.5C 291.667,257.5 290.833,258.5 290,259.5C 289.581,257.32 289.748,255.154 290.5,253C 290.251,250.336 289.085,248.169 287,246.5C 286.506,244.866 286.34,243.199 286.5,241.5C 290.809,248.102 295.143,254.768 299.5,261.5C 307.73,238.142 315.73,214.809 323.5,191.5 Z"/></g>
<g><path style="opacity:1" fill="#455964" d="M 313.5,276.5 C 312.001,280.665 312.334,284.665 314.5,288.5C 315.515,292.383 316.848,296.217 318.5,300C 321.154,305.503 324.154,310.169 327.5,314C 324.594,317.735 321.761,321.568 319,325.5C 317.382,322.879 315.382,320.546 313,318.5C 312.869,315.629 311.703,313.295 309.5,311.5C 308.355,309.365 308.355,307.199 309.5,305C 307.087,305.06 304.921,303.894 303,301.5C 300.567,293.502 301.234,285.835 305,278.5C 305.944,281.347 305.444,283.847 303.5,286C 304.5,286.5 305.5,287 306.5,287.5C 310.306,277.102 311.139,266.435 309,255.5C 307.887,254.289 306.72,254.289 305.5,255.5C 305.167,255 304.833,254.5 304.5,254C 304.646,252.273 305.313,252.106 306.5,253.5C 309.418,251.992 310.084,249.825 308.5,247C 309.913,243.991 310.246,240.991 309.5,238C 311.252,234.746 312.418,231.246 313,227.5C 313.333,228.167 313.667,228.833 314,229.5C 315.713,229.62 317.546,229.453 319.5,229C 319.08,231.277 318.413,233.777 317.5,236.5C 321.295,235.959 323.295,237.625 323.5,241.5C 321.76,248.807 319.26,255.807 316,262.5C 315.054,267.163 314.221,271.83 313.5,276.5 Z"/></g>
<g><path style="opacity:1" fill="#42687d" d="M 147.5,293.5 C 152.735,307.205 157.402,321.205 161.5,335.5C 161.167,335.5 160.833,335.5 160.5,335.5C 158.057,325.463 154.557,315.796 150,306.5C 149.004,302.184 148.17,297.851 147.5,293.5 Z"/></g>
<g><path style="opacity:1" fill="#80d7fc" d="M 365.5,408.5 C 368.195,413.517 370.862,418.517 373.5,423.5C 338.167,423.5 302.833,423.5 267.5,423.5C 267.5,422.5 267.5,421.5 267.5,420.5C 268.458,416.621 269.791,412.955 271.5,409.5C 273.708,408.106 275.208,406.106 276,403.5C 276.346,400.424 277.012,397.424 278,394.5C 279,394.167 280,393.833 281,393.5C 281.562,391.134 281.396,388.801 280.5,386.5C 284.22,377.917 286.553,368.917 287.5,359.5C 289.826,351.51 292.159,343.51 294.5,335.5C 297.534,326.571 300.7,317.571 304,308.5C 304.667,307.167 305.333,307.167 306,308.5C 325.621,342.094 345.454,375.428 365.5,408.5 Z"/></g>
<g><path style="opacity:1" fill="#455a66" d="M 94.5,255.5 C 85.6664,296.824 77.1664,338.158 69,379.5C 87.6077,347.937 106.441,316.604 125.5,285.5C 123.9,290.926 122.067,296.259 120,301.5C 116.999,303.846 115.999,306.846 117,310.5C 119.014,308.155 121.347,306.155 124,304.5C 125.938,305.86 127.604,305.527 129,303.5C 129.333,305.167 129.667,306.833 130,308.5C 131.713,306.493 133.379,304.493 135,302.5C 135.949,306.378 137.115,306.378 138.5,302.5C 138.833,303 139.167,303.5 139.5,304C 138.833,305.667 138.167,307.333 137.5,309C 138.572,315.398 140.572,315.898 143.5,310.5C 142.801,308.388 143.301,306.388 145,304.5C 144.954,308.676 145.454,313.01 146.5,317.5C 147.192,316.975 147.692,316.308 148,315.5C 149.871,319.742 149.871,324.075 148,328.5C 145.551,329.729 144.384,331.729 144.5,334.5C 148.278,344.613 151.278,354.946 153.5,365.5C 146.765,346.129 139.932,326.796 133,307.5C 110.142,345.893 87.3086,384.227 64.5,422.5C 63.9569,422.56 63.6236,422.893 63.5,423.5C 99.331,424.83 134.998,424.83 170.5,423.5C 171.043,423.44 171.376,423.107 171.5,422.5C 165.494,404.148 159.494,385.815 153.5,367.5C 155.964,371.339 157.797,375.673 159,380.5C 161.543,376.069 162.043,371.402 160.5,366.5C 158.833,368.167 157.833,367.833 157.5,365.5C 159.248,361.007 159.915,356.34 159.5,351.5C 160.5,351.5 161.5,351.5 162.5,351.5C 162.086,353.808 161.753,356.142 161.5,358.5C 163.227,363.244 164.561,368.077 165.5,373C 164.33,377.337 162.664,381.504 160.5,385.5C 160.833,385.833 161.167,386.167 161.5,386.5C 164.664,381.822 167.664,376.988 170.5,372C 165.961,361.106 162.461,349.94 160,338.5C 158.164,339.669 156.998,341.336 156.5,343.5C 157.779,348.147 157.779,352.814 156.5,357.5C 155.758,355.65 154.758,354.984 153.5,355.5C 153.833,354.833 154.167,354.167 154.5,353.5C 152.553,349.364 152.053,345.03 153,340.5C 153.978,338.525 155.311,336.858 157,335.5C 158.261,336.658 159.427,336.658 160.5,335.5C 160.833,335.5 161.167,335.5 161.5,335.5C 171.394,363.852 180.728,392.519 189.5,421.5C 189.5,422.5 189.5,423.5 189.5,424.5C 209.007,424.83 228.341,424.497 247.5,423.5C 253.96,402.787 260.626,382.12 267.5,361.5C 271.484,358.186 273.318,353.853 273,348.5C 274.147,347.542 275.147,347.875 276,349.5C 277.239,343.944 277.906,338.278 278,332.5C 280.137,324.808 283.137,317.475 287,310.5C 288.707,312.909 289.54,315.575 289.5,318.5C 286.512,318.155 285.179,319.488 285.5,322.5C 287.008,327.72 287.842,333.053 288,338.5C 289.215,333.949 289.881,329.282 290,324.5C 292.758,320.332 294.258,315.666 294.5,310.5C 295.427,312.113 296.261,313.779 297,315.5C 296.735,322.302 295.902,328.969 294.5,335.5C 292.159,343.51 289.826,351.51 287.5,359.5C 281.253,375.801 275.92,392.468 271.5,409.5C 269.791,412.955 268.458,416.621 267.5,420.5C 266.566,421.568 266.232,422.901 266.5,424.5C 300.167,424.5 333.833,424.5 367.5,424.5C 335.336,425.332 303.003,425.832 270.5,426C 271.304,427.771 272.471,429.271 274,430.5C 295,430.167 316,429.833 337,429.5C 337.167,429.833 337.333,430.167 337.5,430.5C 336.624,431.251 335.624,431.751 334.5,432C 312.809,432.188 291.143,432.688 269.5,433.5C 268.833,433.167 268.167,432.833 267.5,432.5C 268.833,431.167 268.833,429.833 267.5,428.5C 265.604,427.534 263.604,427.201 261.5,427.5C 261.383,429.484 262.05,431.15 263.5,432.5C 260.893,433.318 258.226,433.818 255.5,434C 254.549,434.718 254.383,435.551 255,436.5C 259.597,437.032 264.097,437.865 268.5,439C 265.247,440.036 261.914,440.703 258.5,441C 257.565,443.381 257.232,445.881 257.5,448.5C 250.446,471.826 243.112,494.993 235.5,518C 235.833,518.5 236.167,519 236.5,519.5C 252.025,509.24 267.692,499.24 283.5,489.5C 284.476,490.815 285.476,492.148 286.5,493.5C 290.739,493.183 295.073,493.183 299.5,493.5C 299.36,495.124 300.027,496.29 301.5,497C 300.5,497.333 299.5,497.667 298.5,498C 298.833,498.333 299.167,498.667 299.5,499C 297.924,499.44 296.59,500.273 295.5,501.5C 295.167,500.833 294.833,500.167 294.5,499.5C 293.167,500.5 291.833,501.5 290.5,502.5C 290.167,501.833 289.833,501.167 289.5,500.5C 288.772,503.293 287.105,505.293 284.5,506.5C 285.127,507.417 285.461,508.417 285.5,509.5C 264.651,522.838 243.651,536.005 222.5,549C 220.167,549.667 217.833,549.667 215.5,549C 156.465,512.623 97.9651,475.456 40,437.5C 39.3988,435.863 38.8988,434.197 38.5,432.5C 46.8405,394.46 55.1739,356.46 63.5,318.5C 65.4535,315.859 66.9535,312.859 68,309.5C 69.1667,308.333 70.3333,307.167 71.5,306C 71.0426,305.586 70.7093,305.086 70.5,304.5C 72.6989,299.127 73.6989,293.46 73.5,287.5C 74.8221,287.67 75.9887,287.337 77,286.5C 77.4994,292.157 77.6661,297.824 77.5,303.5C 76.5,303.5 75.5,303.5 74.5,303.5C 73.4967,308.517 73.4967,313.517 74.5,318.5C 79.791,302.925 82.291,286.925 82,270.5C 83.0113,271.337 84.1779,271.67 85.5,271.5C 85.1866,274.247 85.52,276.914 86.5,279.5C 87.3333,278.5 88.1667,277.5 89,276.5C 87.7386,272.387 87.2386,268.221 87.5,264C 88.8905,262.98 90.3905,262.147 92,261.5C 92.8447,259.389 93.678,257.389 94.5,255.5 Z"/></g>
<g><path style="opacity:1" fill="#80d7fc" d="M 153.5,365.5 C 153.5,366.167 153.5,366.833 153.5,367.5C 159.494,385.815 165.494,404.148 171.5,422.5C 171.376,423.107 171.043,423.44 170.5,423.5C 134.996,423.832 99.6627,423.498 64.5,422.5C 87.3086,384.227 110.142,345.893 133,307.5C 139.932,326.796 146.765,346.129 153.5,365.5 Z"/></g>
<g><path style="opacity:1" fill="#84cbe7" d="M 355.5,316.5 C 360.522,336.431 365.188,356.598 369.5,377C 369.676,379.359 369.009,379.859 367.5,378.5C 366.091,374.684 364.424,371.017 362.5,367.5C 363.851,365.577 364.518,363.41 364.5,361C 363.353,355.236 361.52,349.736 359,344.5C 357.743,335.163 356.576,325.83 355.5,316.5 Z"/></g>
<g><path style="opacity:1" fill="#82d0ea" d="M 287.5,359.5 C 286.553,368.917 284.22,377.917 280.5,386.5C 281.396,388.801 281.562,391.134 281,393.5C 280,393.833 279,394.167 278,394.5C 277.012,397.424 276.346,400.424 276,403.5C 275.208,406.106 273.708,408.106 271.5,409.5C 275.92,392.468 281.253,375.801 287.5,359.5 Z"/></g>
<g><path style="opacity:1" fill="#558091" d="M 64.5,422.5 C 99.6627,423.498 134.996,423.832 170.5,423.5C 134.998,424.83 99.331,424.83 63.5,423.5C 63.6236,422.893 63.9569,422.56 64.5,422.5 Z"/></g>
<g><path style="opacity:1" fill="#558091" d="M 189.5,421.5 C 208.599,423.468 227.932,424.135 247.5,423.5C 228.341,424.497 209.007,424.83 189.5,424.5C 189.5,423.5 189.5,422.5 189.5,421.5 Z"/></g>
<g><path style="opacity:1" fill="#558192" d="M 267.5,420.5 C 267.5,421.5 267.5,422.5 267.5,423.5C 302.833,423.5 338.167,423.5 373.5,423.5C 372.791,424.404 371.791,424.737 370.5,424.5C 369.5,424.5 368.5,424.5 367.5,424.5C 333.833,424.5 300.167,424.5 266.5,424.5C 266.232,422.901 266.566,421.568 267.5,420.5 Z"/></g>
<g><path style="opacity:1" fill="#455967" d="M 367.5,424.5 C 368.5,424.5 369.5,424.5 370.5,424.5C 372.297,426.434 373.297,428.767 373.5,431.5C 371.328,430.199 368.995,429.199 366.5,428.5C 366.587,431.598 366.087,431.932 365,429.5C 362.333,429.5 359.667,429.5 357,429.5C 355.333,430.167 353.667,430.833 352,431.5C 351.667,430.833 351.333,430.167 351,429.5C 347.667,430.833 344.333,430.833 341,429.5C 340.833,429.833 340.667,430.167 340.5,430.5C 343.941,431.461 347.274,432.628 350.5,434C 348.833,434.333 347.167,434.667 345.5,435C 321.167,435.333 296.833,435.667 272.5,436C 272.167,436.333 271.833,436.667 271.5,437C 298.165,437.5 324.831,437.667 351.5,437.5C 351.5,438.5 351.5,439.5 351.5,440.5C 354.247,440.187 356.914,440.52 359.5,441.5C 359.376,442.107 359.043,442.44 358.5,442.5C 325.833,441.167 293.167,441.167 260.5,442.5C 259.5,444.5 258.5,446.5 257.5,448.5C 257.232,445.881 257.565,443.381 258.5,441C 261.914,440.703 265.247,440.036 268.5,439C 264.097,437.865 259.597,437.032 255,436.5C 254.383,435.551 254.549,434.718 255.5,434C 258.226,433.818 260.893,433.318 263.5,432.5C 262.05,431.15 261.383,429.484 261.5,427.5C 263.604,427.201 265.604,427.534 267.5,428.5C 268.833,429.833 268.833,431.167 267.5,432.5C 268.167,432.833 268.833,433.167 269.5,433.5C 291.143,432.688 312.809,432.188 334.5,432C 335.624,431.751 336.624,431.251 337.5,430.5C 337.333,430.167 337.167,429.833 337,429.5C 316,429.833 295,430.167 274,430.5C 272.471,429.271 271.304,427.771 270.5,426C 303.003,425.832 335.336,425.332 367.5,424.5 Z"/></g>
<g><path style="opacity:1" fill="#73b4d1" d="M 177.5,442.5 C 145.662,442.168 113.996,442.502 82.5,443.5C 81.2438,443.539 80.2438,443.039 79.5,442C 112.336,441.169 145.003,441.336 177.5,442.5 Z"/></g>
<g><path style="opacity:1" fill="#75b4d0" d="M 240.5,443.5 C 226.167,442.167 211.833,442.167 197.5,443.5C 196.957,443.44 196.624,443.107 196.5,442.5C 211.5,441.167 226.5,441.167 241.5,442.5C 241.376,443.107 241.043,443.44 240.5,443.5 Z"/></g>
<g><path style="opacity:1" fill="#74b4d0" d="M 260.5,442.5 C 293.167,441.167 325.833,441.167 358.5,442.5C 357.609,443.11 356.609,443.443 355.5,443.5C 324.004,442.502 292.338,442.168 260.5,442.5 Z"/></g>
<g><path style="opacity:1" fill="#80d6fb" d="M 177.5,442.5 C 186.135,467.572 194.468,492.739 202.5,518C 202.167,518.5 201.833,519 201.5,519.5C 161.793,494.106 122.127,468.773 82.5,443.5C 113.996,442.502 145.662,442.168 177.5,442.5 Z"/></g>
<g><path style="opacity:1" fill="#81d7fb" d="M 240.5,443.5 C 233.499,465.821 226.332,488.154 219,510.5C 211.694,488.085 204.527,465.752 197.5,443.5C 211.833,442.167 226.167,442.167 240.5,443.5 Z"/></g>
<g><path style="opacity:1" fill="#81d6fb" d="M 260.5,442.5 C 292.338,442.168 324.004,442.502 355.5,443.5C 331.232,458.439 307.232,473.772 283.5,489.5C 267.692,499.24 252.025,509.24 236.5,519.5C 236.167,519 235.833,518.5 235.5,518C 243.112,494.993 250.446,471.826 257.5,448.5C 258.5,446.5 259.5,444.5 260.5,442.5 Z"/></g>
</svg>
